ply
format ascii 1.0
comment Created in Blender version 4.1.1
element vertex 22
property float x
property float y
property float z
property uchar red
property uchar green
property uchar blue
property uchar alpha
element face 40
property list uchar uint vertex_indices
end_header
0.59829456 -0.1054919 0.705691 0 0 0 0
-0.31929606 -0.78864634 0.74213797 0 0 0 0
-0.96398145 -0.38080516 0.022578098 0 0 0 0
-0.9615667 0.23240718 0.38121042 0 0 0 0
0.39483243 0.6836165 -1.2694273 0 0 0 0
0.55447173 -1.1577601 0.4308083 0 0 0 0
0.5450189 -1.1298182 -0.42678845 0 0 0 0
-0.20900458 -1.2058394 -0.6799501 0 0 0 0
-0.5464333 -0.81677425 -0.089714 0 0 0 0
0.5875849 -0.50600797 -0.63906467 0 0 0 0
0.53281945 -0.2909924 0.06523958 0 0 0 0
1.0741173 0.17039199 -0.32863608 0 0 0 0
-0.020844126 -0.019491607 1.4118431 0 0 0 0
-0.39963514 -0.4152877 0.4663792 0 0 0 0
0.7195786 -0.013796174 -1.0614723 0 0 0 0
-0.3432031 -0.33239684 -1.1558678 0 0 0 0
0.6221354 0.6245643 0.75194424 0 0 0 0
-0.26213497 0.6004104 0.92405325 0 0 0 0
-0.0015086263 1.2747135 0.0015840755 0 0 0 0
0.11935274 0.89730483 0.5046223 0 0 0 0
-0.9467605 0.6958542 -0.67302525 0 0 0 0
0.08353716 0.68326706 -0.90346605 0 0 0 0
3 7 5 1
3 0 5 10
3 7 1 8
3 1 0 12
3 2 13 3
3 1 12 13
3 9 14 11
3 3 17 19
3 18 11 21
3 11 4 21
3 21 20 18
3 20 19 18
3 20 3 19
3 17 16 19
3 19 16 18
3 16 11 18
3 14 4 11
3 15 21 4
3 15 20 21
3 2 3 20
3 13 17 3
3 13 12 17
3 12 16 17
3 0 10 16
3 10 11 16
3 14 15 4
3 14 9 15
3 15 2 20
3 15 8 2
3 12 0 16
3 10 9 11
3 6 7 9
3 7 15 9
3 7 8 15
3 8 13 2
3 8 1 13
3 10 6 9
3 10 5 6
3 5 7 6
3 1 5 0
